<mxfile host="app.diagrams.net" modified="2024-05-08T11:49:52.815Z" agent="Mozilla/5.0 (Macintosh; Intel Mac OS X 10.15; rv:125.0) Gecko/20100101 Firefox/125.0" etag="nYSYNELHpi61BxKaL1Ys" version="24.3.1" type="device">
  <diagram name="Page-1" id="IGAIs_AbQtJXb9oYm0y-">
    <mxGraphModel dx="-56" dy="456" grid="1" gridSize="10" guides="1" tooltips="1" connect="1" arrows="1" fold="1" page="1" pageScale="1" pageWidth="850" pageHeight="1100" math="0" shadow="0">
      <root>
        <mxCell id="0" />
        <mxCell id="1" parent="0" />
        <mxCell id="mSMyPiHk9TtF8riK5GBz-22" value="External" style="text;html=1;align=center;verticalAlign=middle;whiteSpace=wrap;rounded=0;" parent="1" vertex="1">
          <mxGeometry x="990" width="80" height="40" as="geometry" />
        </mxCell>
        <mxCell id="mSMyPiHk9TtF8riK5GBz-23" style="edgeStyle=orthogonalEdgeStyle;rounded=0;orthogonalLoop=1;jettySize=auto;html=1;exitX=1;exitY=0.5;exitDx=0;exitDy=0;entryX=0.5;entryY=0;entryDx=0;entryDy=0;" parent="1" source="mSMyPiHk9TtF8riK5GBz-26" target="mSMyPiHk9TtF8riK5GBz-35" edge="1">
          <mxGeometry relative="1" as="geometry" />
        </mxCell>
        <mxCell id="mSMyPiHk9TtF8riK5GBz-25" style="edgeStyle=orthogonalEdgeStyle;rounded=0;orthogonalLoop=1;jettySize=auto;html=1;exitX=0.5;exitY=0;exitDx=0;exitDy=0;" parent="1" source="mSMyPiHk9TtF8riK5GBz-26" target="mSMyPiHk9TtF8riK5GBz-22" edge="1">
          <mxGeometry relative="1" as="geometry" />
        </mxCell>
        <mxCell id="mSMyPiHk9TtF8riK5GBz-43" style="edgeStyle=orthogonalEdgeStyle;rounded=0;orthogonalLoop=1;jettySize=auto;html=1;exitX=0;exitY=0.5;exitDx=0;exitDy=0;entryX=0.5;entryY=0;entryDx=0;entryDy=0;" parent="1" source="mSMyPiHk9TtF8riK5GBz-26" target="mSMyPiHk9TtF8riK5GBz-31" edge="1">
          <mxGeometry relative="1" as="geometry" />
        </mxCell>
        <mxCell id="mSMyPiHk9TtF8riK5GBz-27" style="edgeStyle=orthogonalEdgeStyle;rounded=0;orthogonalLoop=1;jettySize=auto;html=1;exitX=1;exitY=0.5;exitDx=0;exitDy=0;entryX=0;entryY=0.5;entryDx=0;entryDy=0;" parent="1" source="mSMyPiHk9TtF8riK5GBz-31" target="mSMyPiHk9TtF8riK5GBz-35" edge="1">
          <mxGeometry relative="1" as="geometry" />
        </mxCell>
        <mxCell id="mSMyPiHk9TtF8riK5GBz-45" style="edgeStyle=orthogonalEdgeStyle;rounded=0;orthogonalLoop=1;jettySize=auto;html=1;exitX=0.5;exitY=1;exitDx=0;exitDy=0;entryX=0.5;entryY=0;entryDx=0;entryDy=0;" parent="1" source="mSMyPiHk9TtF8riK5GBz-31" target="mSMyPiHk9TtF8riK5GBz-37" edge="1">
          <mxGeometry relative="1" as="geometry" />
        </mxCell>
        <mxCell id="mSMyPiHk9TtF8riK5GBz-46" style="edgeStyle=orthogonalEdgeStyle;rounded=0;orthogonalLoop=1;jettySize=auto;html=1;exitX=0.5;exitY=1;exitDx=0;exitDy=0;entryX=0.5;entryY=0;entryDx=0;entryDy=0;" parent="1" source="mSMyPiHk9TtF8riK5GBz-31" target="mSMyPiHk9TtF8riK5GBz-36" edge="1">
          <mxGeometry relative="1" as="geometry" />
        </mxCell>
        <mxCell id="mSMyPiHk9TtF8riK5GBz-32" style="edgeStyle=orthogonalEdgeStyle;rounded=0;orthogonalLoop=1;jettySize=auto;html=1;exitX=0;exitY=0.5;exitDx=0;exitDy=0;entryX=1;entryY=0.5;entryDx=0;entryDy=0;" parent="1" source="mSMyPiHk9TtF8riK5GBz-35" target="mSMyPiHk9TtF8riK5GBz-31" edge="1">
          <mxGeometry relative="1" as="geometry">
            <mxPoint x="960" y="220" as="targetPoint" />
          </mxGeometry>
        </mxCell>
        <mxCell id="mSMyPiHk9TtF8riK5GBz-33" style="edgeStyle=orthogonalEdgeStyle;rounded=0;orthogonalLoop=1;jettySize=auto;html=1;exitX=0.5;exitY=1;exitDx=0;exitDy=0;entryX=0.5;entryY=0;entryDx=0;entryDy=0;" parent="1" source="mSMyPiHk9TtF8riK5GBz-35" target="mSMyPiHk9TtF8riK5GBz-38" edge="1">
          <mxGeometry relative="1" as="geometry" />
        </mxCell>
        <mxCell id="mSMyPiHk9TtF8riK5GBz-34" style="edgeStyle=orthogonalEdgeStyle;rounded=0;orthogonalLoop=1;jettySize=auto;html=1;exitX=0.5;exitY=0;exitDx=0;exitDy=0;entryX=1;entryY=0.5;entryDx=0;entryDy=0;" parent="1" source="mSMyPiHk9TtF8riK5GBz-35" target="mSMyPiHk9TtF8riK5GBz-26" edge="1">
          <mxGeometry relative="1" as="geometry" />
        </mxCell>
        <mxCell id="mSMyPiHk9TtF8riK5GBz-36" value="LAN A" style="text;html=1;align=center;verticalAlign=middle;whiteSpace=wrap;rounded=0;" parent="1" vertex="1">
          <mxGeometry x="850" y="240" width="80" height="40" as="geometry" />
        </mxCell>
        <mxCell id="mSMyPiHk9TtF8riK5GBz-37" value="LAN B" style="text;html=1;align=center;verticalAlign=middle;whiteSpace=wrap;rounded=0;" parent="1" vertex="1">
          <mxGeometry x="930" y="240" width="80" height="40" as="geometry" />
        </mxCell>
        <mxCell id="mSMyPiHk9TtF8riK5GBz-38" value="LAN Server" style="text;html=1;align=center;verticalAlign=middle;whiteSpace=wrap;rounded=0;" parent="1" vertex="1">
          <mxGeometry x="1090" y="240" width="80" height="40" as="geometry" />
        </mxCell>
        <mxCell id="mSMyPiHk9TtF8riK5GBz-40" value="&lt;div align=&quot;right&quot;&gt;LAN&lt;/div&gt;&lt;div align=&quot;right&quot;&gt;Transit B&lt;br&gt;&lt;/div&gt;" style="text;html=1;align=right;verticalAlign=middle;whiteSpace=wrap;rounded=0;" parent="1" vertex="1">
          <mxGeometry x="1040" y="100" width="80" height="40" as="geometry" />
        </mxCell>
        <mxCell id="mSMyPiHk9TtF8riK5GBz-41" value="Lan Transit A" style="text;html=1;align=center;verticalAlign=middle;whiteSpace=wrap;rounded=0;" parent="1" vertex="1">
          <mxGeometry x="990" y="140" width="80" height="40" as="geometry" />
        </mxCell>
        <mxCell id="ue_C1JkTVUuEyxplO0AK-1" value="" style="endArrow=classic;html=1;rounded=0;fillColor=#fad9d5;strokeColor=#ae4132;endFill=1;" parent="1" edge="1">
          <mxGeometry width="50" height="50" relative="1" as="geometry">
            <mxPoint x="900" y="230" as="sourcePoint" />
            <mxPoint x="1120" y="230" as="targetPoint" />
            <Array as="points">
              <mxPoint x="900" y="190" />
              <mxPoint x="1120" y="190" />
            </Array>
          </mxGeometry>
        </mxCell>
        <mxCell id="ue_C1JkTVUuEyxplO0AK-2" value="" style="endArrow=none;html=1;rounded=0;fillColor=#fad9d5;strokeColor=#ae4132;" parent="1" edge="1">
          <mxGeometry width="50" height="50" relative="1" as="geometry">
            <mxPoint x="960" y="190" as="sourcePoint" />
            <mxPoint x="960" y="230" as="targetPoint" />
          </mxGeometry>
        </mxCell>
        <mxCell id="ue_C1JkTVUuEyxplO0AK-3" value="" style="endArrow=none;html=1;rounded=0;fillColor=#b1ddf0;strokeColor=#10739e;" parent="1" edge="1">
          <mxGeometry width="50" height="50" relative="1" as="geometry">
            <mxPoint x="950" y="230" as="sourcePoint" />
            <mxPoint x="950" y="70" as="targetPoint" />
          </mxGeometry>
        </mxCell>
        <mxCell id="ue_C1JkTVUuEyxplO0AK-4" value="" style="endArrow=classic;html=1;rounded=0;fillColor=#b1ddf0;strokeColor=#10739e;endFill=1;" parent="1" edge="1">
          <mxGeometry width="50" height="50" relative="1" as="geometry">
            <mxPoint x="910" y="230" as="sourcePoint" />
            <mxPoint x="1020" y="50" as="targetPoint" />
            <Array as="points">
              <mxPoint x="910" y="70" />
              <mxPoint x="1020" y="70" />
            </Array>
          </mxGeometry>
        </mxCell>
        <mxCell id="ue_C1JkTVUuEyxplO0AK-6" value="" style="endArrow=classic;html=1;rounded=0;fillColor=#b0e3e6;strokeColor=#0e8088;endFill=1;" parent="1" edge="1">
          <mxGeometry width="50" height="50" relative="1" as="geometry">
            <mxPoint x="1140" y="230" as="sourcePoint" />
            <mxPoint x="1040" y="50" as="targetPoint" />
            <Array as="points">
              <mxPoint x="1140" y="70" />
              <mxPoint x="1040" y="70" />
            </Array>
          </mxGeometry>
        </mxCell>
        <mxCell id="mSMyPiHk9TtF8riK5GBz-35" value="Router2" style="rounded=0;whiteSpace=wrap;html=1;opacity=70;" parent="1" vertex="1">
          <mxGeometry x="1090" y="160" width="80" height="40" as="geometry" />
        </mxCell>
        <mxCell id="mSMyPiHk9TtF8riK5GBz-31" value="Router1" style="rounded=0;whiteSpace=wrap;html=1;opacity=70;" parent="1" vertex="1">
          <mxGeometry x="890" y="160" width="80" height="40" as="geometry" />
        </mxCell>
        <mxCell id="mSMyPiHk9TtF8riK5GBz-26" value="Router0" style="rounded=0;whiteSpace=wrap;html=1;opacity=70;" parent="1" vertex="1">
          <mxGeometry x="990" y="60" width="80" height="40" as="geometry" />
        </mxCell>
        <mxCell id="mSMyPiHk9TtF8riK5GBz-44" style="edgeStyle=orthogonalEdgeStyle;rounded=0;orthogonalLoop=1;jettySize=auto;html=1;exitX=0.5;exitY=0;exitDx=0;exitDy=0;entryX=0;entryY=0.5;entryDx=0;entryDy=0;" parent="1" source="mSMyPiHk9TtF8riK5GBz-31" target="mSMyPiHk9TtF8riK5GBz-26" edge="1">
          <mxGeometry relative="1" as="geometry" />
        </mxCell>
        <mxCell id="mSMyPiHk9TtF8riK5GBz-39" value="&lt;div&gt;LAN&lt;/div&gt;&lt;div&gt;Transit C&lt;br&gt;&lt;/div&gt;" style="text;html=1;align=left;verticalAlign=middle;whiteSpace=wrap;rounded=0;" parent="1" vertex="1">
          <mxGeometry x="940" y="100" width="80" height="40" as="geometry" />
        </mxCell>
      </root>
    </mxGraphModel>
  </diagram>
</mxfile>
